# xmcd
#
# Track frame offsets: 
#        150
#        12735
#        26100
#        38075
#        57607
#        70815
#        80495
#        92660
#        109392
#        123160
#        140632
#        152007
#        166005
#        179870
#        196147
#        205627
#        229755
#        242612
#        259020
#        271702
#        285727
#        297932
#
# Disc length: 4189 seconds
#
# Revision: 0
# Processed by: cddbd v1.5.1PL0 Copyright (c) Steve Scherf et al.
# Submitted via: ExactAudioCopy v0.95a5
#
DISCID=3f105b16
DTITLE=Various Artist - Warner Reprise Christmas 1992
DYEAR=1992
DGENRE=Christmas/Holiday
TTITLE0=Randy Travis - How Do I Wrap My Heart Up For Christmas
TTITLE1=Holly Dunn - Feliz Navidad
TTITLE2=Michael Martin Murphy - Two Step 'Round The Christmas Tree
TTITLE3=Texas Tornados - Rudolph The Red-Nosed Reindeer
TTITLE4=Kenny Rogers - I'll Be Home For Christmas
TTITLE5=Brenda Lee - Rockin' Around The Christmas Tree
TTITLE6=Dwight Yoakam - Santa Claus Is Back In Town
TTITLE7=Emmylou Harris - O Little Town Of Bethlehem
TTITLE8=Mark O'Connor - Sleigh Ride
TTITLE9=Crystal Gayle - Have Yourself A Merry Little Christmas
TTITLE10=The A-Strings - Jingle Bells
TTITLE11=The Fairfield Four - The Last Month Of The Year
TTITLE12=Kenny Rogers - Christmas In America
TTITLE13=The A-Strings With Kathy Mattea - The Christmas Song
TTITLE14=Randy Travis - Santa Claus Is Coming To Town
TTITLE15=Travis Tritt - Silver Bells
TTITLE16=The Forester Sisters - The First Noel
TTITLE17=Michael Martin Murphy - The Cowboy Christmas Ball
TTITLE18=Emmylou Harris - Christmas Time's A-Coming
TTITLE19=Travis Tritt - All I Want For Christmas Dear Is You
TTITLE20=Take 6 - Hark! The Herals Angels Sing
TTITLE21=Take 6 - Away In A Manger
EXTD=
EXTT0=
EXTT1=
EXTT2=
EXTT3=
EXTT4=
EXTT5=
EXTT6=
EXTT7=
EXTT8=
EXTT9=
EXTT10=
EXTT11=
EXTT12=
EXTT13=
EXTT14=
EXTT15=
EXTT16=
EXTT17=
EXTT18=
EXTT19=
EXTT20=
EXTT21=
PLAYORDER=
